<svg width="155" height="36" viewBox="0 0 155 36" fill="none" xmlns="http://www.w3.org/2000/svg">
<path d="M32.7811 14.7265V3.65418C32.7811 3.59303 32.7315 3.54346 32.6703 3.54346H2.11072C2.04957 3.54346 2 3.59303 2 3.65418V34.2138C2 34.2749 2.04957 34.3245 2.11072 34.3245H32.6703C32.7315 34.3245 32.7811 34.2749 32.7811 34.2138V28.7884" stroke="#EEF7FD" stroke-width="2.65736"/>
<path d="M9.55748 12.5848L8.87647 13.1381C8.82235 13.1821 8.80188 13.2554 8.82541 13.3211L9.80963 16.0665H11.695L12.6291 13.3161C12.6506 13.2529 12.6316 13.1829 12.5812 13.1392L11.9493 12.5915C11.8895 12.5397 11.8131 12.5112 11.7341 12.5112H9.76469C9.68922 12.5112 9.61605 12.5372 9.55748 12.5848Z" fill="#F9C20F"/>
<path d="M9.84888 16.5474H11.6804L13.953 25.6004C13.9803 25.7089 13.9504 25.8239 13.8737 25.9055L10.8649 29.1047C10.8005 29.1732 10.6919 29.1738 10.6267 29.106L7.55255 25.9075C7.4732 25.825 7.44255 25.7071 7.47164 25.5963L9.84888 16.5474Z" fill="#F9C20F"/>
<path d="M13.3682 19.8746V17.5029H18.2754C19.2926 17.5029 20.0795 17.2439 20.6361 16.7257C21.2118 16.1883 21.4997 15.4494 21.4997 14.509C21.4997 13.6645 21.2214 12.9544 20.6648 12.3787C20.1083 11.8029 19.3214 11.515 18.3042 11.515H8.86426V8.9684C8.86426 8.78495 9.01298 8.63623 9.19643 8.63623H18.4482C19.7148 8.63623 20.828 8.89532 21.7876 9.41351C22.7472 9.91251 23.4861 10.6034 24.0043 11.4862C24.5416 12.3499 24.8103 13.3383 24.8103 14.4514C24.8103 15.6221 24.5416 16.6393 24.0043 17.5029C23.4861 18.3666 22.7472 19.0383 21.7876 19.5181C20.828 19.9979 19.7148 20.2378 18.4482 20.2378L13.3682 19.8746ZM23.1783 28.7879L16.1252 20.0363L19.2055 18.9136L27.3525 28.7879H23.1783Z" fill="#EEF7FD"/>
<path d="M41.8428 29.2879C40.461 29.2879 39.2135 28.9808 38.1004 28.3667C37.0064 27.7333 36.1332 26.8697 35.4806 25.7757C34.8473 24.6818 34.5306 23.4535 34.5306 22.0909C34.5306 20.7282 34.8473 19.5095 35.4806 18.4348C36.114 17.3408 36.968 16.4772 38.0428 15.8439C39.1367 15.2105 40.3458 14.8939 41.6701 14.8939C42.9559 14.8939 44.0883 15.1913 45.0671 15.7863C46.065 16.3812 46.8423 17.1969 47.3989 18.2333C47.9746 19.2696 48.2625 20.45 48.2625 21.7742C48.2625 22.0045 48.2433 22.2444 48.205 22.4939C48.1858 22.7242 48.1474 22.9833 48.0898 23.2712H36.7473V20.6803H46.4489L45.2686 21.7166C45.2302 20.8722 45.0671 20.1621 44.7792 19.5863C44.4913 19.0106 44.0787 18.5691 43.5413 18.2621C43.0231 17.955 42.3802 17.8015 41.6125 17.8015C40.8064 17.8015 40.1059 17.9742 39.511 18.3196C38.916 18.6651 38.4554 19.1545 38.1291 19.7878C37.8029 20.402 37.6397 21.1409 37.6397 22.0045C37.6397 22.8681 37.8125 23.6262 38.1579 24.2788C38.5034 24.9313 38.9928 25.4399 39.6261 25.8045C40.2595 26.15 40.9888 26.3227 41.814 26.3227C42.5241 26.3227 43.1766 26.198 43.7716 25.9485C44.3857 25.699 44.9039 25.3343 45.3261 24.8545L47.3413 26.8985C46.6696 27.6853 45.8539 28.2803 44.8943 28.6833C43.9347 29.0864 42.9175 29.2879 41.8428 29.2879Z" fill="#EEF7FD"/>
<path d="M58.1719 29.2879C56.8093 29.2879 55.5714 28.9712 54.4583 28.3379C53.3643 27.7045 52.5007 26.8409 51.8674 25.747C51.234 24.653 50.9174 23.4343 50.9174 22.0909C50.9174 20.7282 51.234 19.5095 51.8674 18.4348C52.5007 17.3408 53.3643 16.4772 54.4583 15.8439C55.5714 15.2105 56.8093 14.8939 58.1719 14.8939C59.2467 14.8939 60.2447 15.105 61.1659 15.5272C62.1063 15.9302 62.9028 16.5156 63.5553 17.2833L61.4826 19.3848C61.0795 18.905 60.5901 18.5499 60.0144 18.3196C59.4578 18.0701 58.8437 17.9454 58.1719 17.9454C57.3851 17.9454 56.6846 18.1277 56.0704 18.4924C55.4755 18.8378 55.0053 19.3176 54.6598 19.9318C54.3335 20.5459 54.1704 21.2656 54.1704 22.0909C54.1704 22.8969 54.3335 23.6166 54.6598 24.25C55.0053 24.8641 55.4755 25.3535 56.0704 25.7182C56.6846 26.0636 57.3851 26.2363 58.1719 26.2363C58.8437 26.2363 59.4578 26.1212 60.0144 25.8909C60.5901 25.6414 61.0795 25.2767 61.4826 24.7969L63.5553 26.8985C62.9028 27.6662 62.1063 28.2611 61.1659 28.6833C60.2447 29.0864 59.2467 29.2879 58.1719 29.2879Z" fill="#EEF7FD"/>
<path d="M66.8684 29V15.1817H70.0351V29H66.8684ZM70.0351 21.3136L68.9411 20.7666C68.9411 19.0201 69.325 17.6095 70.0926 16.5348C70.8795 15.4408 72.0598 14.8939 73.6336 14.8939C74.3245 14.8939 74.9482 15.0186 75.5048 15.2681C76.0614 15.5176 76.5795 15.9206 77.0593 16.4772L74.9866 18.6075C74.7371 18.3388 74.4588 18.1469 74.1517 18.0318C73.8447 17.9166 73.4896 17.859 73.0866 17.859C72.2038 17.859 71.4745 18.1373 70.8987 18.6939C70.3229 19.2505 70.0351 20.1237 70.0351 21.3136Z" fill="#EEF7FD"/>
<path d="M85.8258 29.2879C84.655 29.2879 83.6091 29.0288 82.6879 28.5106C81.7858 27.9924 81.0757 27.2823 80.5575 26.3803C80.0585 25.4591 79.8091 24.4035 79.8091 23.2136V15.1817H82.9757V23.0697C82.9757 23.7414 83.0813 24.3171 83.2924 24.7969C83.5227 25.2576 83.849 25.6126 84.2712 25.8621C84.7126 26.1116 85.2308 26.2363 85.8258 26.2363C86.747 26.2363 87.4475 25.9677 87.9273 25.4303C88.4263 24.8737 88.6758 24.0868 88.6758 23.0697V15.1817H91.8425V23.2136C91.8425 24.4227 91.5834 25.4879 91.0652 26.4091C90.5662 27.3111 89.8657 28.0212 88.9636 28.5394C88.0616 29.0384 87.0157 29.2879 85.8258 29.2879Z" fill="#EEF7FD"/>
<path d="M96.1286 29V15.1817H99.2953V29H96.1286ZM97.712 12.6484C97.1746 12.6484 96.7236 12.4661 96.3589 12.1014C96.0135 11.7368 95.8407 11.2858 95.8407 10.7484C95.8407 10.211 96.0135 9.75999 96.3589 9.39534C96.7236 9.0307 97.1746 8.84837 97.712 8.84837C98.2685 8.84837 98.7195 9.0307 99.065 9.39534C99.4104 9.75999 99.5832 10.211 99.5832 10.7484C99.5832 11.2858 99.4104 11.7368 99.065 12.1014C98.7195 12.4661 98.2685 12.6484 97.712 12.6484Z" fill="#EEF7FD"/>
<path d="M105.951 29V9.42413H109.118V29H105.951ZM102.641 18.0605V15.1817H112.429V18.0605H102.641Z" fill="#EEF7FD"/>
<circle cx="115.713" cy="10.74" r="1.66085" fill="#F9C20F"/>
<rect x="114.052" y="14.8364" width="3.3217" height="13.7297" fill="#EEF7FD"/>
<path d="M122.027 29V13.3681C122.027 12.3125 122.257 11.3817 122.718 10.5757C123.198 9.76959 123.85 9.13625 124.676 8.67564C125.52 8.21504 126.489 7.98473 127.583 7.98473C128.428 7.98473 129.147 8.12867 129.742 8.41655C130.337 8.70443 130.894 9.11706 131.412 9.65444L129.368 11.6984C129.138 11.4681 128.888 11.2858 128.62 11.1514C128.351 11.0171 128.005 10.9499 127.583 10.9499C126.816 10.9499 126.221 11.161 125.798 11.5832C125.395 11.9863 125.194 12.5716 125.194 13.3393V29H122.027ZM118.717 18.0605V15.1817H129.368V18.0605H118.717Z" fill="#EEF7FD"/>
<path d="M132.777 29V15.1817H135.944V29H132.777ZM134.36 12.6484C133.823 12.6484 133.372 12.4661 133.007 12.1014C132.662 11.7368 132.489 11.2858 132.489 10.7484C132.489 10.211 132.662 9.75999 133.007 9.39534C133.372 9.0307 133.823 8.84837 134.36 8.84837C134.917 8.84837 135.368 9.0307 135.713 9.39534C136.059 9.75999 136.232 10.211 136.232 10.7484C136.232 11.2858 136.059 11.7368 135.713 12.1014C135.368 12.4661 134.917 12.6484 134.36 12.6484Z" fill="#EEF7FD"/>
<path d="M146.919 29.2879C145.537 29.2879 144.29 28.9808 143.177 28.3667C142.083 27.7333 141.209 26.8697 140.557 25.7757C139.923 24.6818 139.607 23.4535 139.607 22.0909C139.607 20.7282 139.923 19.5095 140.557 18.4348C141.19 17.3408 142.044 16.4772 143.119 15.8439C144.213 15.2105 145.422 14.8939 146.746 14.8939C148.032 14.8939 149.164 15.1913 150.143 15.7863C151.141 16.3812 151.918 17.1969 152.475 18.2333C153.051 19.2696 153.339 20.45 153.339 21.7742C153.339 22.0045 153.32 22.2444 153.281 22.4939C153.262 22.7242 153.224 22.9833 153.166 23.2712H141.823V20.6803H151.525L150.345 21.7166C150.306 20.8722 150.143 20.1621 149.855 19.5863C149.567 19.0106 149.155 18.5691 148.617 18.2621C148.099 17.955 147.456 17.8015 146.689 17.8015C145.883 17.8015 145.182 17.9742 144.587 18.3196C143.992 18.6651 143.532 19.1545 143.205 19.7878C142.879 20.402 142.716 21.1409 142.716 22.0045C142.716 22.8681 142.889 23.6262 143.234 24.2788C143.58 24.9313 144.069 25.4399 144.702 25.8045C145.336 26.15 146.065 26.3227 146.89 26.3227C147.6 26.3227 148.253 26.198 148.848 25.9485C149.462 25.699 149.98 25.3343 150.402 24.8545L152.417 26.8985C151.746 27.6853 150.93 28.2803 149.97 28.6833C149.011 29.0864 147.994 29.2879 146.919 29.2879Z" fill="#EEF7FD"/>
</svg>
